<mxfile host="app.diagrams.net" modified="2023-03-02T23:15:30.658Z" agent="5.0 (Macintosh)" etag="seLC8E-ZOCpFKyxQ6YKG" version="20.8.20" type="github">
  <diagram name="Page-1" id="zI-B0sT3JKAIAYyOLBg3">
    <mxGraphModel dx="954" dy="642" grid="1" gridSize="10" guides="1" tooltips="1" connect="1" arrows="1" fold="1" page="1" pageScale="1" pageWidth="850" pageHeight="1100" math="0" shadow="0">
      <root>
        <mxCell id="0" />
        <mxCell id="1" parent="0" />
        <mxCell id="AgmhSTgppIo5VWnveR5w-1" value="" style="ellipse;html=1;shape=startState;fillColor=#000000;strokeColor=#ff0000;" vertex="1" parent="1">
          <mxGeometry x="410" y="60" width="30" height="30" as="geometry" />
        </mxCell>
        <mxCell id="AgmhSTgppIo5VWnveR5w-2" value="" style="edgeStyle=orthogonalEdgeStyle;html=1;verticalAlign=bottom;endArrow=open;endSize=8;strokeColor=#ff0000;rounded=0;" edge="1" source="AgmhSTgppIo5VWnveR5w-1" parent="1">
          <mxGeometry relative="1" as="geometry">
            <mxPoint x="425" y="150" as="targetPoint" />
          </mxGeometry>
        </mxCell>
      </root>
    </mxGraphModel>
  </diagram>
</mxfile>
